<?xml version="1.0" standalone="no"?>
<!DOCTYPE svg PUBLIC "-//W3C//DTD SVG 20010904//EN"
 "http://www.w3.org/TR/2001/REC-SVG-20010904/DTD/svg10.dtd">
<svg version="1.0" xmlns="http://www.w3.org/2000/svg"
 width="5626.000000pt" height="5626.000000pt" viewBox="0 0 5626.000000 5626.000000"
 preserveAspectRatio="xMidYMid meet">
<metadata>
Created by potrace 1.16, written by Peter Selinger 2001-2019
</metadata>
<g transform="translate(0.000000,5626.000000) scale(0.100000,-0.100000)"
fill="#000000" stroke="none">
<path d="M0 28130 l0 -28130 14999 0 14999 0 6 24 c3 13 6 2849 6 6302 0 4950
-3 6284 -13 6303 l-12 23 -455 4 c-301 3 -499 10 -585 19 -125 14 -239 23
-562 45 -83 5 -198 19 -255 29 -56 11 -130 22 -163 26 -33 3 -94 12 -135 20
-41 8 -122 19 -180 25 -58 6 -134 17 -170 25 -36 7 -92 16 -125 20 -33 3 -103
17 -155 31 -52 13 -110 24 -128 24 -19 0 -65 9 -101 20 -36 10 -167 39 -291
64 -124 25 -279 59 -345 77 -66 17 -151 37 -190 45 -38 7 -90 20 -115 29 -48
17 -154 45 -285 75 -44 10 -120 32 -170 50 -49 17 -112 38 -140 47 -27 9 -106
35 -175 59 -69 23 -210 70 -315 104 -207 68 -378 131 -490 180 -56 24 -386
157 -460 185 -121 46 -169 67 -358 156 -501 238 -868 428 -1337 692 -337 191
-601 358 -1013 643 -87 60 -227 156 -311 214 -84 58 -199 141 -257 185 -57 44
-147 111 -199 148 -52 38 -113 86 -135 107 -22 21 -81 72 -131 112 -50 40
-149 124 -220 187 -71 63 -163 140 -204 171 -106 81 -413 371 -768 724 -312
310 -562 578 -719 771 -49 61 -125 148 -168 195 -88 96 -230 270 -355 435 -47
62 -121 159 -165 216 -44 57 -100 133 -125 169 -25 36 -59 83 -76 105 -34 42
-70 95 -242 348 -113 167 -159 237 -286 438 -43 68 -91 143 -107 165 -31 44
-149 243 -149 250 0 2 -30 53 -67 112 -158 256 -763 1457 -763 1516 0 5 -24
64 -54 131 -59 131 -146 336 -169 400 -8 22 -29 76 -46 120 -18 44 -40 103
-51 130 -10 28 -35 93 -56 145 -20 52 -40 111 -44 130 -5 19 -30 98 -58 175
-78 221 -113 325 -134 400 -11 39 -34 115 -50 170 -61 202 -67 221 -73 255 -4
19 -15 64 -26 100 -39 135 -71 257 -79 300 -4 25 -26 117 -48 205 -22 88 -48
194 -56 235 -9 41 -30 138 -47 215 -16 77 -37 183 -45 235 -8 52 -23 138 -34
190 -11 52 -29 157 -39 233 -11 76 -22 141 -25 146 -3 4 -12 77 -21 162 -9 85
-18 161 -20 169 -3 8 -12 80 -20 160 -9 80 -24 215 -35 300 -10 85 -21 238
-25 340 -3 102 -13 323 -21 493 -28 539 3 1897 50 2232 22 155 64 497 71 580
7 76 41 289 80 505 14 74 27 160 31 190 3 30 15 87 25 125 10 39 25 106 33
150 38 198 74 358 121 540 13 50 27 113 30 140 4 28 15 75 25 105 10 30 31
100 45 155 71 265 111 404 182 615 25 74 49 153 54 175 5 22 32 105 60 185 64
187 65 190 101 285 17 44 50 134 73 200 24 66 60 158 80 205 20 47 46 108 57
135 10 28 26 64 33 82 8 17 15 34 15 38 0 7 99 241 140 330 141 305 477 992
499 1019 5 6 37 65 71 131 90 173 118 223 160 285 20 30 48 75 62 100 49 86
194 322 328 531 263 411 743 1083 927 1295 29 34 94 113 145 177 51 63 139
168 194 233 56 66 130 153 164 194 34 41 85 100 114 130 463 493 679 714 827
849 58 53 170 156 248 228 79 73 190 170 249 215 58 45 137 111 176 146 39 36
103 90 141 121 39 30 101 83 139 116 99 87 463 370 641 499 250 182 1002 668
1195 773 25 14 92 53 150 88 111 66 246 141 395 220 50 26 151 80 225 120 74
40 194 101 265 135 72 34 189 90 260 125 108 52 461 214 595 273 37 16 96 39
195 77 33 12 121 46 195 75 74 29 171 65 215 81 425 156 724 259 752 259 8 0
47 10 86 23 111 36 232 73 352 107 61 18 139 41 175 52 36 10 97 25 135 33 39
7 151 33 250 58 455 114 598 147 638 147 21 0 88 11 148 25 60 13 149 29 197
35 48 6 106 15 128 20 23 5 95 16 160 24 150 18 376 52 475 71 42 8 148 19
235 25 316 21 441 32 544 47 80 12 220 17 585 20 429 4 481 6 492 20 10 14 13
1289 13 6302 0 3457 -3 6296 -6 6309 l-6 22 -14999 0 -14999 0 0 -28130z
m8949 23766 c97 -19 144 -52 189 -134 l35 -64 -1 -156 c-1 -166 -2 -173 -52
-352 -18 -63 -41 -144 -51 -180 -9 -36 -35 -123 -57 -195 -22 -71 -47 -157
-55 -190 -8 -33 -30 -107 -47 -165 -29 -94 -59 -217 -92 -380 -6 -30 -12 -109
-12 -175 -1 -117 0 -122 33 -187 20 -40 52 -85 82 -112 43 -40 49 -50 49 -86
0 -22 -6 -55 -14 -73 -16 -41 -77 -94 -134 -119 -62 -28 -119 -13 -198 51 -87
71 -129 137 -159 254 -57 223 -19 558 122 1047 20 69 46 161 58 205 13 44 42
135 64 202 23 68 41 132 41 142 0 11 12 57 27 103 19 60 26 106 27 165 1 74
-1 84 -24 108 -14 15 -40 34 -57 41 -29 13 -39 12 -90 -6 -79 -28 -123 -60
-238 -175 -111 -110 -211 -239 -299 -385 -81 -133 -107 -190 -145 -315 -18
-60 -46 -150 -61 -200 -48 -158 -68 -229 -79 -280 -6 -27 -25 -97 -41 -155
-17 -58 -38 -134 -47 -170 -50 -202 -88 -312 -118 -344 -57 -62 -276 -65 -337
-4 -21 21 -21 31 6 108 26 75 83 261 100 325 62 235 90 338 107 389 10 33 19
69 19 80 0 12 11 57 24 101 14 44 36 121 50 170 14 50 48 168 76 263 48 166
75 294 87 429 7 78 -20 143 -71 167 -31 15 -38 14 -89 -3 -132 -46 -252 -169
-459 -471 -150 -219 -264 -439 -303 -584 -28 -106 -64 -235 -95 -336 -17 -58
-36 -123 -42 -145 -6 -22 -23 -83 -39 -135 -112 -372 -106 -363 -206 -386 -76
-18 -128 -17 -191 1 -88 27 -90 38 -37 201 60 182 87 268 120 384 15 52 43
147 62 210 43 141 58 193 128 440 81 285 105 369 125 430 10 30 24 77 30 104
6 27 18 58 26 70 16 23 19 72 4 81 -5 3 -24 -8 -42 -26 -67 -64 -136 -107
-263 -164 -289 -128 -344 -165 -391 -260 -22 -45 -26 -65 -22 -110 5 -63 19
-81 98 -134 31 -20 59 -48 64 -62 12 -36 -19 -98 -62 -122 -30 -17 -40 -18
-120 -7 -108 14 -172 44 -239 111 -81 80 -98 124 -97 244 0 94 2 104 34 163
74 139 202 221 500 319 304 101 466 189 620 338 94 91 96 93 155 99 60 7 149
-5 185 -24 38 -20 37 -93 -1 -196 -11 -28 -26 -76 -34 -106 -8 -30 -24 -72
-36 -92 -21 -37 -20 -66 3 -66 7 1 31 24 53 53 60 78 259 272 323 316 134 90
227 121 367 121 174 0 265 -64 311 -221 16 -52 15 -100 -2 -201 -5 -32 -3 -38
12 -38 9 0 33 18 53 41 228 260 395 383 561 413 100 18 131 19 219 2z m4322
-81 c25 -9 59 -29 74 -45 26 -27 27 -32 15 -57 -7 -16 -18 -50 -25 -78 -7 -27
-30 -95 -50 -150 -20 -55 -43 -125 -51 -155 -7 -30 -27 -93 -45 -140 -41 -113
-42 -131 -4 -142 17 -5 73 -7 125 -4 52 3 100 2 106 -2 48 -31 43 -176 -6
-202 -10 -6 -84 -10 -163 -10 -106 0 -147 -3 -155 -13 -17 -20 -55 -150 -116
-396 -56 -221 -56 -226 -57 -372 0 -161 7 -189 57 -228 20 -16 41 -21 87 -21
127 0 309 129 424 300 43 65 126 233 157 319 56 157 102 228 220 346 120 119
172 153 311 201 74 26 92 28 235 28 153 1 156 1 220 -30 140 -67 211 -169 218
-315 4 -70 1 -82 -34 -165 -33 -75 -51 -101 -114 -165 -81 -81 -177 -136 -277
-157 -123 -27 -293 -25 -409 4 -35 9 -56 -22 -49 -70 11 -65 62 -162 108 -202
90 -79 228 -113 377 -95 199 25 410 164 529 350 53 84 131 237 131 260 0 8 9
44 20 80 48 161 79 269 85 301 3 19 18 70 32 113 22 70 29 81 59 93 77 32 227
8 278 -45 32 -33 32 -32 -10 -154 -14 -43 -24 -81 -20 -84 11 -12 60 18 96 60
48 54 174 144 270 193 66 33 85 39 163 42 110 6 155 -10 220 -76 37 -38 49
-59 63 -111 15 -59 15 -74 0 -189 -16 -123 -29 -177 -87 -354 -16 -47 -29 -94
-29 -105 0 -10 -12 -54 -26 -98 -33 -105 -38 -223 -10 -254 44 -49 134 -12
238 97 85 89 218 298 218 342 0 12 9 39 21 62 12 23 28 64 36 92 33 110 144
296 219 367 103 98 288 189 428 210 187 29 359 -8 455 -100 81 -77 96 -116 95
-251 l0 -115 -43 -83 c-72 -136 -201 -233 -372 -277 -95 -25 -250 -30 -337
-11 -84 18 -122 10 -122 -26 0 -12 10 -53 23 -91 55 -173 230 -264 457 -238
328 37 624 353 705 751 6 30 70 263 108 395 10 32 19 42 47 52 101 34 286 -11
302 -74 3 -10 -8 -50 -23 -88 -57 -140 -32 -149 84 -32 83 84 188 156 277 189
59 22 171 23 213 2 41 -21 94 -71 115 -109 9 -16 19 -61 22 -100 6 -88 24 -96
68 -32 60 86 244 216 346 243 68 18 182 18 237 -1 98 -33 159 -134 159 -258
-1 -63 -26 -181 -73 -337 -14 -47 -42 -141 -62 -210 -47 -155 -58 -217 -53
-299 5 -72 20 -91 73 -91 81 0 251 173 353 361 30 53 72 157 94 229 18 60 94
202 141 265 158 210 384 335 632 351 130 8 186 -2 289 -50 95 -45 160 -115
201 -217 29 -72 30 -79 30 -239 0 -145 -3 -175 -24 -245 -32 -108 -69 -199
-98 -237 -27 -37 -30 -76 -6 -85 23 -9 129 14 183 39 58 28 168 139 200 203
31 61 150 271 241 427 148 251 329 459 454 519 61 30 79 34 148 34 l78 0 40
-42 c47 -50 49 -73 12 -147 l-26 -54 27 -119 c15 -65 40 -156 56 -203 43 -130
78 -261 101 -383 19 -99 20 -119 9 -183 -7 -39 -9 -77 -6 -83 17 -27 125 3
197 55 83 60 174 176 214 271 32 76 64 90 111 50 33 -28 35 -72 6 -114 -11
-15 -39 -62 -63 -103 -60 -104 -174 -214 -270 -262 -67 -34 -110 -45 -245 -64
-20 -3 -56 -27 -103 -69 -73 -66 -154 -115 -190 -115 -11 0 -46 -7 -78 -15
-160 -42 -362 17 -448 129 -34 45 -78 190 -70 232 7 43 39 80 86 104 50 26 75
25 104 -5 18 -17 25 -35 25 -62 0 -52 37 -123 79 -150 59 -39 148 -28 204 25
31 30 33 39 12 78 -8 16 -15 46 -15 67 0 33 7 46 50 90 28 28 50 56 50 61 0
25 -52 267 -69 326 -67 223 -81 278 -81 314 0 60 -10 86 -31 86 -20 0 -98 -93
-179 -215 -59 -89 -198 -338 -206 -369 -15 -61 -175 -278 -261 -356 -133 -120
-242 -159 -417 -146 l-88 6 -63 -50 c-35 -28 -101 -70 -148 -95 -72 -39 -103
-48 -203 -65 -146 -24 -175 -24 -291 -1 -176 35 -293 137 -338 293 -17 59 -33
82 -51 70 -6 -4 -23 -30 -39 -59 -36 -67 -153 -186 -237 -241 -52 -34 -87 -48
-160 -63 -90 -20 -96 -20 -177 -3 -94 19 -138 49 -172 115 -23 47 -26 200 -5
294 36 160 70 295 117 464 37 135 43 239 15 269 -9 11 -31 22 -48 26 -88 17
-260 -133 -361 -315 -37 -67 -63 -149 -97 -304 -10 -49 -36 -153 -56 -230 -20
-77 -40 -162 -45 -189 -10 -59 -32 -94 -67 -107 -15 -6 -78 -11 -140 -11 -98
-1 -117 2 -140 19 -15 11 -28 30 -30 42 -3 21 18 116 118 511 27 107 52 213
55 235 3 22 16 69 28 105 12 38 21 92 22 128 0 58 -3 66 -28 88 -43 37 -84 32
-153 -19 -109 -80 -259 -269 -284 -357 -6 -19 -29 -100 -52 -180 -22 -80 -49
-181 -58 -225 -51 -230 -60 -267 -75 -294 -8 -17 -23 -34 -33 -39 -28 -15
-155 -21 -222 -12 -101 14 -127 53 -96 145 7 22 17 57 20 78 10 53 -15 49 -73
-11 -182 -188 -476 -273 -777 -224 -98 16 -135 28 -204 62 -132 66 -235 182
-264 298 -18 71 -40 64 -103 -32 -67 -103 -180 -217 -266 -268 -50 -30 -92
-46 -160 -60 -88 -18 -95 -18 -172 -1 -67 14 -87 23 -122 56 -28 26 -47 54
-54 81 -15 53 -5 277 15 332 8 22 30 110 50 195 20 85 46 192 58 239 12 47 22
113 22 148 1 58 -2 66 -27 88 -69 59 -173 10 -342 -161 -61 -62 -117 -127
-126 -146 -26 -55 -69 -193 -69 -221 0 -14 -7 -45 -15 -69 -17 -47 -77 -290
-96 -384 -22 -117 -47 -140 -159 -149 -140 -12 -240 21 -240 80 0 13 9 46 20
74 24 61 26 110 5 110 -8 0 -45 -31 -83 -68 -56 -56 -88 -79 -182 -125 -97
-47 -133 -59 -232 -76 -142 -25 -198 -26 -349 -2 -149 23 -247 68 -335 156
-59 58 -113 146 -128 208 -6 26 -29 35 -51 19 -5 -4 -32 -40 -59 -80 -100
-149 -267 -269 -412 -297 -135 -26 -277 -15 -359 28 -74 38 -147 152 -164 256
-17 106 -44 109 -102 11 -45 -76 -171 -200 -253 -249 -38 -23 -86 -40 -149
-53 -86 -18 -97 -18 -172 -3 -90 18 -117 34 -160 94 -29 42 -30 45 -29 160 1
87 8 142 27 221 35 143 56 234 72 306 7 34 23 93 34 130 33 115 32 194 -4 229
-58 59 -177 10 -322 -132 -102 -100 -160 -174 -168 -215 -6 -30 -22 -85 -77
-267 -10 -35 -21 -84 -24 -110 -3 -25 -14 -73 -24 -106 -11 -33 -26 -95 -35
-139 -18 -90 -36 -131 -67 -147 -35 -19 -247 -16 -284 3 -48 26 -59 64 -35
119 22 47 28 114 11 124 -6 4 -23 -8 -38 -26 -74 -89 -167 -160 -259 -199 -60
-26 -80 -29 -172 -30 l-104 0 -43 45 c-55 57 -90 160 -80 235 4 28 2 51 -3 55
-18 10 -52 -19 -76 -65 -60 -116 -226 -252 -338 -276 -125 -27 -264 -10 -338
41 -45 32 -76 70 -115 145 -28 54 -29 59 -29 205 0 135 3 159 28 245 108 362
413 675 747 766 77 21 368 25 435 6 171 -48 314 -121 351 -178 15 -22 14 -27
-6 -68 -24 -51 -78 -103 -116 -112 -18 -5 -34 0 -53 14 -90 66 -264 122 -382
122 -198 0 -400 -146 -521 -376 -25 -49 -62 -138 -82 -198 -30 -91 -36 -123
-36 -195 0 -79 3 -91 29 -133 51 -81 89 -87 177 -30 97 64 182 171 292 372 43
79 122 261 122 282 0 33 23 90 47 119 26 31 28 31 102 27 55 -3 90 -12 127
-31 87 -44 86 -36 35 -222 -17 -60 -40 -150 -51 -200 -11 -49 -27 -115 -35
-145 -8 -30 -15 -80 -15 -111 0 -101 61 -144 143 -103 101 51 264 232 334 369
70 137 130 298 148 395 6 32 27 105 88 310 20 66 27 77 57 92 70 36 216 15
271 -38 34 -33 35 -41 9 -117 -11 -32 -22 -73 -26 -92 -9 -50 19 -47 70 8 87
91 184 161 310 222 77 38 202 47 272 20 87 -33 142 -100 164 -200 13 -57 -9
-232 -40 -322 -11 -32 -26 -85 -34 -118 -8 -33 -33 -119 -55 -191 -28 -91 -42
-158 -46 -220 -8 -111 3 -138 58 -142 71 -6 169 71 276 218 99 133 160 264
191 410 10 47 30 137 45 200 16 63 28 131 29 150 1 30 -3 35 -29 43 -56 17
-80 32 -89 59 -13 37 7 98 44 138 27 29 33 31 70 25 72 -12 80 -1 155 227 37
112 76 230 86 263 26 88 77 223 96 256 9 15 26 32 37 38 28 15 160 6 217 -14z
m11862 -12 c32 -14 63 -35 68 -45 8 -15 -2 -55 -44 -176 -104 -298 -167 -500
-161 -516 9 -24 46 -30 149 -22 80 5 95 4 113 -11 32 -28 41 -71 26 -121 -23
-80 -28 -82 -193 -82 -80 0 -152 -4 -159 -9 -8 -4 -22 -39 -33 -77 -67 -244
-81 -297 -95 -369 -9 -44 -27 -133 -40 -198 -38 -188 -28 -275 43 -349 24 -25
34 -28 92 -28 189 0 394 201 547 535 22 47 55 155 87 285 19 74 85 285 102
327 19 45 52 56 160 51 97 -5 144 -21 169 -61 14 -20 13 -29 -3 -87 -11 -36
-33 -119 -51 -185 -17 -66 -40 -149 -50 -185 -10 -36 -23 -87 -28 -115 -6 -27
-26 -113 -45 -189 -43 -169 -53 -251 -37 -300 13 -40 52 -76 84 -76 39 0 121
47 183 103 165 153 229 288 367 767 67 235 88 296 108 313 16 13 39 17 103 17
92 0 134 -11 183 -48 38 -28 38 -25 -1 -162 -13 -47 -39 -137 -57 -200 -18
-63 -37 -135 -42 -160 -5 -25 -20 -83 -34 -130 -31 -107 -64 -307 -64 -383 0
-52 4 -62 30 -88 34 -35 49 -33 120 12 88 56 223 220 278 340 17 35 37 80 46
99 9 19 24 49 34 65 10 17 38 66 61 110 121 225 245 403 374 534 116 119 185
160 285 168 151 13 218 -78 153 -206 -19 -36 -19 -38 4 -136 26 -116 58 -236
85 -315 10 -31 33 -111 50 -178 27 -104 32 -143 33 -255 2 -152 3 -153 94
-122 106 36 225 153 294 292 24 48 49 91 54 96 24 18 105 -28 105 -60 0 -46
-124 -238 -210 -324 -102 -103 -243 -168 -362 -169 -30 0 -48 -9 -90 -45 -115
-98 -178 -133 -283 -155 -121 -25 -179 -25 -271 -1 -165 43 -274 173 -274 328
0 70 1 72 37 102 98 81 173 61 173 -45 0 -44 18 -80 64 -123 59 -57 159 -54
229 7 21 19 22 54 1 94 -23 44 -11 86 41 147 l45 53 -6 67 c-4 36 -17 100 -30
141 -12 41 -26 93 -30 115 -4 22 -18 71 -31 109 -12 38 -30 108 -38 155 -24
135 -23 131 -50 131 -25 0 -73 -57 -181 -220 -72 -107 -196 -335 -220 -404 -8
-21 -62 -111 -122 -200 -137 -206 -278 -354 -390 -410 -67 -34 -80 -37 -167
-38 -82 -2 -99 1 -123 19 -81 60 -130 185 -109 277 18 79 -13 75 -73 -9 -81
-113 -191 -211 -295 -263 -37 -18 -224 -49 -270 -45 -89 10 -142 29 -183 67
-50 46 -92 121 -92 165 0 77 -34 81 -80 10 -37 -58 -115 -123 -208 -175 -72
-39 -182 -65 -282 -65 -74 1 -193 23 -218 42 -135 101 -196 267 -182 489 10
145 57 400 110 597 31 111 25 133 -36 133 -23 0 -39 8 -53 26 -27 35 -26 67 4
132 l24 52 50 0 c96 0 107 13 161 190 17 58 52 164 77 235 24 72 52 157 62
190 25 87 71 168 101 177 47 14 172 -2 233 -29z m-8188 -44448 c64 -17 95 -43
95 -81 0 -12 -11 -53 -24 -91 -13 -37 -50 -153 -81 -258 -31 -104 -72 -239
-90 -300 -18 -60 -45 -155 -60 -210 -54 -197 -73 -261 -91 -298 -14 -29 -15
-40 -6 -50 17 -16 391 -85 417 -77 22 8 43 62 80 205 13 50 41 153 63 230 22
77 46 167 55 200 22 88 111 357 147 450 18 44 38 98 46 120 23 63 54 85 124
85 68 0 176 -31 215 -61 32 -26 31 -46 -12 -164 -77 -208 -96 -265 -114 -333
-10 -41 -21 -77 -24 -82 -6 -10 -52 -174 -75 -270 -36 -147 -69 -266 -84 -302
-20 -47 -20 -87 -1 -94 54 -21 289 65 387 142 59 46 90 53 122 29 11 -8 26
-15 33 -15 7 0 47 32 89 70 120 112 250 191 395 241 57 20 84 22 259 22 l195
1 105 -38 c156 -56 270 -132 270 -181 0 -22 -42 -87 -76 -117 -10 -9 -32 -22
-48 -28 -26 -10 -36 -7 -85 23 -31 19 -70 42 -88 51 -42 21 -228 66 -274 66
-55 0 -201 -54 -276 -102 -172 -112 -319 -366 -353 -611 -14 -101 -8 -145 26
-205 41 -70 92 -75 182 -18 142 89 320 385 414 686 28 90 52 110 133 110 94 0
205 -56 205 -103 0 -10 -15 -74 -34 -141 -57 -206 -89 -357 -94 -448 -4 -83
-3 -88 21 -112 32 -32 64 -33 125 -2 136 69 314 300 389 504 13 37 30 87 37
112 19 63 95 194 154 263 140 165 332 270 522 286 146 13 253 1 326 -37 125
-63 172 -145 161 -278 -6 -79 -37 -145 -97 -205 -37 -37 -55 -48 -93 -53 -96
-15 -217 15 -217 52 0 10 18 53 40 96 55 106 53 159 -10 191 -43 22 -68 19
-145 -19 -104 -50 -182 -140 -243 -281 -48 -112 -73 -216 -75 -313 -1 -77 2
-94 29 -152 53 -113 135 -172 266 -190 321 -46 640 194 762 572 93 291 256
471 518 575 90 36 97 37 246 41 l152 4 81 -38 c227 -107 284 -337 140 -563
-80 -123 -233 -221 -382 -241 -105 -15 -267 -14 -336 1 -41 10 -56 9 -68 -1
-46 -38 18 -211 102 -275 84 -64 140 -79 293 -79 124 0 141 2 210 28 143 54
284 165 377 294 54 76 130 221 144 277 5 22 21 78 34 125 13 47 31 112 39 145
35 140 73 272 84 292 18 32 82 47 167 38 79 -8 122 -23 149 -53 24 -28 17 -90
-21 -174 -20 -45 -23 -62 -14 -71 9 -9 33 10 104 79 191 187 315 244 470 215
107 -20 171 -100 172 -216 0 -83 19 -85 93 -7 82 86 157 144 237 186 57 30 84
37 150 42 160 12 252 -28 305 -132 21 -41 25 -62 24 -134 -1 -86 -18 -164 -84
-380 -59 -196 -70 -238 -91 -344 -12 -64 -18 -124 -14 -144 8 -43 38 -72 73
-72 39 0 137 65 191 126 100 113 233 342 281 485 28 82 51 126 120 230 96 142
224 241 405 314 106 43 233 60 363 50 180 -15 325 -130 376 -300 38 -125 41
-201 16 -340 -28 -155 -61 -257 -104 -325 -64 -99 -41 -125 81 -95 81 20 130
52 209 137 58 63 68 79 118 188 57 124 190 355 285 493 100 145 265 315 347
356 104 51 206 53 263 5 42 -35 48 -78 22 -156 -16 -49 -19 -71 -12 -94 5 -16
12 -54 16 -84 6 -49 56 -231 84 -302 6 -15 24 -89 41 -163 25 -112 30 -158 30
-261 0 -145 1 -147 89 -120 108 34 198 113 281 250 21 35 46 80 54 100 8 20
22 39 31 43 27 10 84 -23 91 -53 19 -76 -197 -363 -330 -437 -56 -31 -158 -62
-235 -72 -47 -5 -63 -14 -115 -59 -76 -65 -150 -107 -243 -135 -115 -34 -175
-37 -271 -11 -168 45 -275 167 -289 327 l-6 73 37 35 c47 44 111 63 146 43 21
-12 26 -24 32 -77 11 -97 66 -159 152 -168 52 -6 127 23 151 60 15 23 14 28
-6 70 -28 57 -22 82 36 147 l45 50 -6 78 c-3 42 -18 122 -34 177 -70 245 -89
315 -100 387 -13 78 -28 105 -53 95 -18 -7 -203 -265 -238 -332 -15 -27 -39
-72 -54 -100 -41 -74 -91 -176 -100 -205 -14 -44 -125 -200 -196 -275 -84 -88
-169 -136 -293 -165 -78 -19 -95 -20 -160 -9 -81 14 -85 12 -181 -69 -102 -86
-385 -175 -504 -157 -70 10 -191 45 -235 67 -92 47 -206 194 -206 266 0 44
-17 83 -33 76 -7 -2 -33 -35 -57 -72 -54 -83 -165 -195 -245 -247 -67 -44
-194 -85 -263 -85 -108 0 -210 59 -252 146 -20 40 -22 57 -17 137 3 51 16 139
30 197 14 58 35 146 47 195 12 50 33 131 46 180 13 50 31 124 39 164 14 69 13
78 -3 110 -38 78 -103 76 -208 -8 -124 -100 -253 -295 -275 -419 -6 -31 -23
-104 -39 -162 -15 -58 -40 -159 -55 -225 -55 -243 -69 -271 -145 -286 -100
-19 -226 -3 -262 33 -24 24 -23 33 27 218 21 74 45 173 55 220 10 47 38 164
63 261 75 292 81 355 37 399 -48 48 -147 4 -257 -113 -57 -60 -150 -199 -175
-262 -19 -48 -64 -207 -82 -290 -17 -76 -63 -257 -90 -354 -27 -95 -46 -110
-147 -118 -138 -10 -239 28 -239 91 0 14 11 51 25 82 52 118 27 127 -77 29
-113 -106 -250 -173 -430 -209 -157 -32 -178 -32 -330 -1 -138 29 -254 79
-327 141 -51 44 -109 130 -135 200 -19 50 -42 84 -57 84 -5 0 -20 -21 -33 -47
-13 -27 -60 -82 -103 -125 -140 -137 -287 -213 -482 -249 -132 -24 -193 -24
-306 1 -201 44 -342 159 -413 338 -35 86 -58 93 -98 30 -76 -120 -228 -259
-343 -314 -83 -40 -181 -59 -250 -49 -93 14 -173 130 -176 255 -3 89 -3 90
-22 90 -12 0 -29 -21 -48 -57 -64 -123 -212 -248 -341 -289 -94 -30 -151 -30
-241 -1 -132 44 -221 145 -243 279 -25 146 6 352 75 497 55 115 46 125 -57 64
-71 -42 -182 -79 -278 -93 -36 -5 -73 -12 -82 -15 -20 -8 -44 -65 -64 -154 -8
-36 -21 -86 -29 -111 -30 -93 -84 -286 -91 -323 -9 -53 -55 -113 -99 -127 -53
-17 -211 -9 -253 14 -51 26 -59 55 -34 118 18 47 37 107 113 373 12 39 27 90
36 115 24 71 22 93 -7 101 -31 9 -272 46 -356 55 -59 6 -63 5 -79 -19 -9 -15
-25 -57 -35 -94 -47 -170 -108 -310 -194 -442 -97 -149 -244 -230 -470 -262
-63 -8 -90 -7 -178 11 -180 36 -264 92 -330 220 -32 62 -33 69 -32 175 0 99 3
118 33 195 77 202 268 367 503 434 133 38 183 46 288 46 115 0 131 9 150 82 6
24 36 126 66 228 31 102 70 230 86 285 17 55 46 148 66 207 19 60 32 111 28
115 -4 4 -42 -11 -84 -32 l-77 -40 -305 -1 c-330 0 -337 -1 -438 -60 -34 -20
-49 -38 -69 -82 -17 -38 -23 -66 -19 -86 12 -61 83 -126 153 -141 24 -5 49 1
102 24 38 17 79 31 91 31 13 0 37 -16 56 -36 47 -50 46 -88 -3 -136 -97 -93
-197 -125 -364 -115 -113 6 -176 31 -254 99 -75 66 -135 200 -135 303 0 57 28
156 57 204 113 183 392 271 757 239 83 -7 208 -13 277 -13 121 0 128 2 191 33
35 17 98 59 138 91 40 33 83 62 94 64 49 10 136 6 191 -8z m12432 -90 c28 -13
56 -33 63 -44 12 -24 2 -75 -29 -151 -11 -25 -47 -133 -80 -240 -34 -107 -71
-214 -81 -238 -37 -79 -32 -82 121 -82 61 0 119 -4 129 -10 46 -25 48 -139 2
-185 -30 -30 -18 -28 -182 -29 l-135 -1 -23 -47 c-27 -53 -62 -175 -92 -316
-11 -52 -22 -98 -25 -102 -3 -5 -17 -75 -31 -157 -31 -175 -28 -270 8 -335 29
-50 63 -68 131 -68 107 0 284 116 383 251 20 28 67 103 103 167 55 96 71 118
92 120 32 4 79 -38 79 -72 0 -24 -55 -136 -132 -268 -86 -149 -246 -312 -365
-372 -65 -32 -201 -66 -268 -66 -65 0 -170 29 -228 64 -50 29 -93 84 -135 174
-26 56 -27 61 -27 262 0 217 11 298 70 505 12 44 28 116 35 159 11 73 11 81
-6 93 -10 7 -28 13 -41 13 -13 0 -33 10 -44 21 -18 18 -21 30 -17 75 4 45 11
61 38 89 29 30 40 34 94 37 l60 3 44 125 c24 69 54 161 67 205 13 44 43 132
65 195 23 63 48 136 56 161 15 48 46 84 79 91 50 10 172 -5 222 -27z"/>
<path d="M21195 50751 c-179 -83 -340 -395 -352 -681 -5 -112 -4 -117 24 -170
40 -76 79 -100 161 -100 56 0 72 4 113 31 27 17 62 46 78 64 27 31 29 39 24
87 -4 45 -2 57 17 81 12 15 40 35 61 44 46 18 50 25 97 157 31 91 35 114 39
237 5 122 3 140 -15 175 -24 48 -47 69 -95 89 -51 21 -83 18 -152 -14z"/>
<path d="M14308 50751 c-97 -39 -186 -136 -259 -280 -60 -121 -53 -141 51
-141 63 0 172 25 221 50 96 50 168 154 176 253 5 60 4 66 -24 96 -37 42 -96
50 -165 22z"/>
<path d="M17394 50751 c-70 -28 -120 -67 -172 -137 -49 -65 -132 -221 -132
-247 0 -27 25 -37 93 -37 85 0 194 30 261 73 82 52 162 199 149 273 -15 80
-103 114 -199 75z"/>
<path d="M21655 6219 c-76 -31 -137 -82 -200 -165 -79 -106 -125 -211 -105
-244 15 -25 134 -25 204 -1 33 12 67 21 76 21 29 0 112 73 151 133 78 120 73
218 -13 257 -52 24 -51 24 -113 -1z"/>
<path d="M25442 6207 c-35 -18 -78 -47 -97 -64 -74 -71 -158 -229 -206 -388
-30 -100 -33 -122 -32 -241 0 -116 2 -135 21 -165 41 -67 67 -83 141 -87 77
-5 116 10 189 74 l44 37 -7 57 c-6 54 -5 59 25 93 17 20 46 41 65 47 31 10 37
20 65 92 91 236 99 435 22 522 -27 29 -88 56 -129 56 -22 -1 -64 -14 -101 -33z"/>
<path d="M16188 5865 c-3 -3 -39 -12 -81 -20 -197 -38 -344 -175 -377 -353
-18 -99 2 -166 63 -206 101 -67 233 7 320 179 43 86 127 325 127 362 0 30 -35
55 -52 38z"/>
<path d="M34253 51880 c-26 -11 -61 -75 -79 -145 -7 -27 -31 -99 -52 -160 -52
-146 -160 -482 -167 -521 -12 -61 -32 -69 -179 -70 -110 0 -147 -5 -231 -28
-158 -43 -339 -153 -426 -258 -53 -65 -132 -184 -179 -273 -23 -44 -50 -91
-60 -105 -9 -14 -33 -56 -54 -95 -150 -288 -453 -464 -730 -426 -89 13 -136
32 -204 83 -42 32 -61 55 -88 111 -37 79 -45 145 -19 167 13 11 26 10 73 -1
70 -17 275 -17 355 0 247 53 437 265 437 488 0 141 -93 271 -231 324 -57 21
-80 24 -209 24 -133 0 -152 -2 -230 -29 -248 -83 -451 -290 -530 -541 -33
-107 -112 -263 -177 -351 -79 -106 -160 -175 -267 -229 -74 -38 -97 -45 -145
-45 -68 0 -98 14 -128 59 -29 42 -30 108 -4 206 25 99 70 182 188 349 72 101
88 145 79 209 -11 70 -69 148 -230 306 -80 80 -146 149 -147 155 -1 6 0 43 1
82 2 83 -11 115 -66 164 -34 29 -42 32 -89 28 -70 -6 -125 -46 -159 -116 -14
-29 -26 -66 -26 -83 0 -31 42 -146 68 -186 12 -20 12 -29 -2 -70 -9 -27 -22
-73 -30 -103 -29 -113 -89 -263 -181 -456 -33 -70 -55 -129 -53 -144 3 -29 57
-61 89 -53 29 8 161 282 204 423 7 25 27 89 43 143 31 102 45 127 68 127 18 0
100 -111 126 -168 25 -55 20 -68 -68 -203 -90 -138 -170 -302 -195 -397 -51
-195 -5 -350 129 -440 57 -39 64 -41 210 -58 81 -10 226 13 302 49 153 72 289
195 376 343 17 30 43 9 75 -62 39 -86 99 -166 152 -205 117 -86 227 -120 432
-135 112 -9 309 25 407 70 132 60 265 162 325 249 35 51 65 48 77 -8 24 -117
72 -196 149 -249 122 -84 295 -80 451 12 80 48 183 148 213 207 25 49 63 95
79 95 11 0 14 -16 14 -72 0 -111 13 -144 84 -215 l63 -63 105 0 c104 0 107 1
189 42 70 34 102 60 190 147 60 60 121 132 140 166 20 33 42 60 50 60 8 0 18
-18 26 -47 18 -74 60 -141 136 -217 94 -94 178 -138 300 -158 166 -26 233 -27
370 -4 351 60 578 273 833 779 89 176 194 344 277 445 74 90 93 84 108 -32 5
-46 21 -116 33 -155 13 -39 31 -100 40 -136 9 -36 22 -88 30 -115 7 -28 20
-92 27 -143 l13 -93 -41 -38 c-50 -45 -61 -88 -42 -161 16 -62 9 -77 -51 -107
-73 -38 -146 -27 -196 29 -32 34 -54 83 -54 117 0 47 -17 80 -45 87 -32 8 -95
-19 -136 -57 -25 -23 -29 -34 -29 -81 0 -111 60 -223 157 -289 82 -57 245 -84
348 -59 22 6 61 14 86 20 58 11 156 68 225 131 30 27 64 50 76 53 13 2 62 11
109 19 58 10 105 26 145 48 116 66 245 213 323 367 34 68 29 94 -23 119 -32
15 -36 15 -60 -1 -14 -9 -26 -22 -26 -30 0 -23 -61 -129 -112 -193 -62 -78
-130 -129 -215 -158 -65 -23 -93 -23 -93 -1 -1 233 -9 336 -34 416 -58 185
-77 251 -112 390 -39 155 -39 152 1 259 16 43 15 44 -10 83 -64 97 -220 89
-362 -20 -132 -100 -288 -305 -429 -564 -37 -68 -73 -130 -80 -138 -7 -8 -36
-60 -64 -115 -138 -264 -357 -430 -604 -456 -243 -25 -417 76 -462 268 -22 94
-2 110 107 87 81 -18 231 -14 327 6 109 24 252 109 320 190 76 91 129 232 119
319 -13 127 -95 237 -217 294 -59 27 -77 30 -191 35 -105 4 -139 1 -209 -17
-190 -48 -330 -143 -461 -311 -52 -67 -93 -145 -125 -240 -41 -121 -116 -279
-173 -364 -97 -143 -223 -256 -286 -256 -34 0 -73 42 -81 88 -16 82 21 338 75
522 10 36 22 84 25 108 4 24 25 103 47 175 22 73 45 150 50 172 5 22 18 65 28
95 10 30 33 102 51 160 18 58 53 164 77 235 25 72 51 150 58 175 7 25 30 93
51 152 43 124 42 130 -44 166 -53 22 -205 37 -239 22z m-2003 -1128 c101 -50
56 -234 -83 -340 -86 -66 -254 -102 -332 -72 -24 9 -26 14 -20 43 16 74 89
191 170 273 107 108 185 137 265 96z m3171 -5 c19 -12 40 -35 47 -50 46 -95
-98 -297 -244 -343 -68 -22 -226 -26 -245 -7 -8 8 -4 29 19 87 55 135 155 256
254 305 74 37 122 40 169 8z m-1572 -16 c11 -19 -11 -104 -61 -241 -10 -30
-24 -73 -29 -95 -27 -109 -127 -312 -204 -413 -81 -108 -181 -182 -244 -182
-36 0 -83 37 -105 84 -18 38 -21 148 -7 206 38 149 57 207 97 289 91 190 190
288 348 343 100 34 190 38 205 9z"/>
<path d="M46095 51880 c-99 -24 -261 -165 -359 -314 -119 -178 -225 -435 -302
-726 -8 -30 -23 -84 -33 -120 -11 -36 -32 -130 -46 -210 -35 -195 -37 -202
-96 -305 -135 -237 -305 -402 -407 -393 -32 3 -40 8 -56 42 -17 35 -18 46 -7
140 12 100 65 328 102 440 11 32 19 77 17 99 -3 39 -6 42 -63 71 -44 22 -79
31 -128 34 -96 6 -105 -2 -151 -139 -21 -63 -44 -123 -50 -134 -7 -11 -20 -38
-28 -60 -29 -73 -136 -255 -195 -332 -65 -85 -123 -134 -189 -159 -42 -16 -47
-16 -80 0 -63 29 -85 127 -64 286 14 106 54 216 123 333 49 83 190 231 258
271 63 36 175 66 248 66 120 0 273 -49 360 -114 52 -38 77 -34 132 23 59 62
79 99 69 127 -16 40 -153 120 -279 161 -116 38 -116 38 -281 37 -173 -1 -224
-8 -329 -50 -127 -51 -230 -122 -352 -244 -135 -135 -163 -175 -282 -415 -89
-177 -184 -322 -258 -392 -19 -17 -61 -48 -93 -67 -101 -61 -166 -43 -166 44
0 55 37 260 55 310 9 25 23 70 31 100 58 222 101 373 124 438 11 29 20 63 20
75 0 12 8 44 17 70 l18 49 -32 28 c-42 38 -90 50 -195 50 -108 0 -115 -7 -153
-128 -14 -48 -35 -114 -45 -147 -10 -33 -23 -82 -29 -110 -34 -168 -109 -366
-181 -474 -105 -156 -239 -261 -405 -317 -73 -24 -90 -26 -191 -22 -98 5 -117
9 -164 34 -68 37 -134 111 -160 182 -19 49 -21 71 -17 152 11 196 91 387 214
507 42 40 156 103 189 103 30 0 81 -31 93 -57 17 -37 4 -104 -30 -158 -40 -63
-45 -89 -21 -113 23 -23 114 -35 196 -26 52 6 60 11 106 60 87 96 118 217 80
317 -30 80 -66 118 -152 158 l-73 34 -160 0 c-152 0 -164 -2 -245 -30 -127
-44 -222 -105 -325 -210 -107 -109 -172 -222 -236 -416 -56 -168 -124 -270
-227 -341 -49 -34 -149 -68 -200 -68 -49 0 -52 23 -10 100 126 230 160 545 79
724 -66 145 -207 241 -372 253 -163 11 -354 -34 -497 -119 -75 -44 -216 -179
-264 -253 -46 -70 -123 -228 -148 -302 -25 -75 -98 -198 -154 -260 -57 -63
-112 -102 -176 -126 -87 -32 -113 -17 -99 57 21 108 -7 259 -111 591 -11 33
-33 118 -51 189 l-32 128 26 53 c37 72 35 97 -12 148 l-40 42 -83 0 c-118 0
-173 -32 -317 -180 -60 -62 -117 -126 -127 -142 -10 -15 -40 -59 -67 -96 -54
-77 -115 -183 -195 -337 -30 -58 -64 -122 -75 -143 -24 -47 -17 -82 23 -102
16 -8 34 -15 39 -15 20 0 50 44 102 144 28 55 56 106 61 112 5 7 21 38 37 70
41 85 264 414 280 414 17 0 30 -27 41 -90 13 -72 41 -183 69 -275 26 -83 71
-276 78 -334 5 -46 4 -49 -41 -95 -72 -72 -78 -106 -33 -168 19 -25 19 -29 4
-51 -23 -35 -95 -67 -151 -67 -43 0 -52 4 -97 48 -48 45 -51 51 -59 116 -5 38
-12 72 -18 78 -5 5 -24 11 -43 14 -43 7 -124 -42 -140 -83 -17 -43 -3 -149 26
-210 26 -52 104 -132 155 -158 40 -21 155 -45 213 -45 77 0 194 27 262 62 34
16 91 56 128 89 38 32 78 61 90 63 12 2 56 9 97 15 96 14 199 64 268 131 30
28 61 50 70 48 11 -2 21 -25 32 -73 22 -94 42 -129 115 -200 77 -75 126 -99
240 -119 114 -20 135 -20 278 4 101 16 131 26 208 66 49 26 115 69 146 96 l57
48 91 -6 c113 -8 225 13 301 57 30 17 86 60 125 95 39 36 78 64 86 62 11 -2
21 -21 28 -53 23 -103 131 -233 254 -304 115 -68 265 -85 482 -57 168 22 308
91 444 217 41 38 81 69 89 69 11 0 13 -12 9 -58 -4 -46 -1 -67 17 -104 20 -43
89 -118 108 -118 4 0 38 -6 76 -14 63 -14 78 -13 172 4 73 14 120 29 161 52
50 28 187 154 262 241 32 37 49 34 56 -10 12 -75 25 -110 60 -155 63 -80 109
-110 203 -129 85 -18 117 -17 230 9 108 25 275 169 333 288 18 36 35 67 39 69
18 11 28 -26 32 -111 5 -103 28 -155 94 -214 l37 -32 111 4 c122 4 156 17 276
98 77 52 221 205 248 263 20 43 45 67 58 55 2 -3 14 -43 25 -89 24 -94 47
-146 92 -203 43 -55 143 -126 176 -126 15 0 48 -7 74 -16 94 -32 296 -2 407
61 111 63 262 216 314 319 36 71 54 70 72 -2 19 -75 57 -134 134 -211 90 -90
182 -138 303 -158 164 -26 232 -27 369 -4 143 25 228 59 349 140 157 106 335
331 422 535 49 118 147 295 219 401 135 198 141 205 165 205 29 0 38 -21 52
-118 6 -40 24 -115 40 -165 15 -51 36 -123 46 -162 10 -38 24 -92 31 -119 7
-27 15 -75 16 -107 2 -55 0 -61 -34 -96 -62 -65 -71 -103 -42 -163 23 -46 10
-78 -45 -107 -51 -27 -118 -30 -160 -8 -44 22 -91 92 -91 135 0 57 -18 99 -46
106 -53 14 -157 -49 -170 -102 -11 -43 4 -125 32 -181 51 -100 139 -169 252
-197 83 -21 149 -20 260 3 106 22 172 57 261 136 34 30 71 57 84 59 12 2 56 9
97 15 185 27 352 173 481 419 33 62 29 87 -20 116 -39 23 -75 11 -85 -27 -20
-80 -133 -232 -220 -296 -68 -51 -194 -91 -197 -63 0 4 -1 72 -3 152 -2 148
-19 233 -86 430 -18 54 -65 233 -89 337 -11 46 -10 56 10 104 40 92 24 145
-55 186 -47 24 -149 12 -227 -28 -117 -58 -297 -265 -443 -507 -71 -118 -190
-340 -203 -378 -28 -82 -176 -251 -282 -321 -317 -211 -717 -129 -771 157 -18
97 -4 107 113 84 89 -18 225 -15 327 7 86 19 189 73 261 138 76 69 120 133
148 214 34 97 36 137 10 224 -21 71 -29 84 -88 143 -91 91 -146 112 -308 118
-187 6 -301 -27 -465 -134 -99 -66 -151 -119 -228 -232 -40 -60 -100 -187
-114 -245 -3 -15 -34 -77 -67 -138 -139 -251 -321 -424 -475 -449 -130 -22
-210 15 -260 117 -25 50 -29 72 -32 158 -4 114 18 261 45 307 11 18 33 35 54
42 61 21 210 112 294 179 91 73 220 205 282 287 46 62 138 226 152 274 5 17
22 65 37 106 26 69 28 87 28 220 1 140 0 147 -27 203 -34 69 -109 146 -169
176 -35 17 -62 21 -129 20 -46 -1 -97 -4 -114 -9z m137 -267 c53 -48 -25 -351
-145 -565 -85 -151 -285 -388 -328 -388 -24 0 -25 39 -4 81 9 16 32 80 51 142
80 252 118 351 209 542 46 95 91 165 124 193 21 17 71 15 93 -5z m-5572 -855
c58 -30 77 -59 94 -141 13 -59 12 -83 0 -178 -8 -60 -21 -129 -30 -152 -9 -23
-22 -64 -30 -91 -17 -60 -27 -72 -69 -86 -19 -6 -48 -27 -66 -47 -29 -34 -31
-40 -25 -91 6 -55 6 -55 -37 -96 -60 -58 -102 -76 -181 -76 -58 0 -69 3 -100
30 -56 50 -67 84 -67 217 0 118 0 120 58 330 28 102 130 263 207 325 45 36
139 77 176 78 14 0 46 -10 70 -22z m6625 -2 c81 -34 91 -117 26 -226 -57 -95
-120 -145 -223 -177 -87 -27 -205 -30 -229 -6 -21 21 34 144 106 241 112 151
222 209 320 168z"/>
<path d="M43280 51601 c-83 -26 -132 -75 -156 -158 -26 -88 -3 -163 63 -208
31 -20 50 -25 103 -25 55 0 73 5 111 28 119 76 158 205 90 301 -40 56 -136 84
-211 62z"/>
<path d="M30057 43593 c-16 -19 -17 -445 -17 -8509 0 -6809 3 -8494 13 -8514
12 -24 19 -25 117 -32 140 -9 210 -19 210 -29 0 -10 -130 -149 -260 -279 l-75
-75 0 -195 c0 -235 2 -238 98 -134 107 116 597 598 628 618 26 16 36 17 96 6
36 -6 79 -18 95 -26 16 -9 42 -15 56 -14 48 3 62 0 62 -13 0 -16 -253 -281
-700 -732 l-337 -340 1 -193 c1 -158 4 -195 16 -202 23 -15 28 -13 61 33 57
79 1259 1280 1306 1306 20 10 87 -15 153 -57 19 -12 45 -22 58 -22 66 0 30
-47 -278 -364 -262 -270 -1238 -1247 -1279 -1280 l-34 -27 -2 -195 c-2 -200 4
-236 38 -242 12 -3 22 8 33 35 19 44 96 124 949 977 676 676 878 875 917 900
26 17 28 17 55 -2 15 -11 37 -29 47 -41 11 -12 24 -21 29 -21 5 0 29 -10 53
-22 50 -24 57 -49 19 -66 -13 -6 -31 -24 -39 -40 -28 -53 -552 -589 -1406
-1437 -509 -505 -666 -655 -685 -655 -27 0 -33 -22 -18 -59 13 -29 14 -61 9
-174 -4 -85 -3 -152 4 -176 l10 -39 -221 -218 c-408 -403 -2884 -2885 -2887
-2894 -2 -5 21 -35 50 -67 29 -33 67 -76 83 -98 29 -35 32 -37 55 -25 39 20
2723 2701 2820 2817 83 99 92 80 87 -175 l-3 -162 -905 -908 c-1214 -1217
-1793 -1801 -1797 -1810 -1 -5 38 -47 87 -96 75 -72 93 -86 108 -78 10 6 574
564 1252 1241 679 677 1238 1231 1242 1231 4 0 10 -8 13 -18 8 -25 4 -389 -4
-403 -4 -6 -508 -511 -1119 -1123 -730 -731 -1110 -1118 -1106 -1127 8 -20
181 -139 202 -139 10 0 27 7 38 16 11 8 460 454 997 990 838 838 978 973 986
957 5 -10 9 -101 9 -203 l-1 -185 -863 -865 c-474 -476 -863 -868 -863 -873 0
-4 10 -12 23 -17 12 -5 64 -27 116 -49 51 -23 99 -41 106 -41 7 0 30 14 51 31
43 34 969 954 1236 1229 157 161 171 173 184 156 10 -15 13 -61 11 -207 -2
-104 -5 -190 -8 -193 -281 -287 -1073 -1077 -1093 -1092 -38 -27 -30 -49 28
-75 63 -28 208 -51 241 -39 28 11 627 601 726 716 64 73 93 90 103 57 2 -10 4
-104 2 -208 l-2 -191 -205 -205 c-113 -114 -214 -209 -226 -213 -23 -7 -37
-32 -24 -41 5 -2 88 -7 186 -10 l178 -4 27 29 c29 31 60 40 60 18 0 -7 0
-1364 0 -3014 0 -2795 1 -3002 17 -3015 24 -20 855 -16 1050 5 76 9 228 22
338 31 110 8 281 26 380 39 99 14 275 37 390 51 354 46 608 84 660 99 28 9 77
18 110 21 56 6 146 25 445 92 120 27 253 62 355 93 33 10 80 21 105 25 25 3
79 17 120 30 41 13 122 37 180 53 58 17 161 47 230 67 69 20 152 43 185 51 33
8 74 20 90 25 17 6 91 31 165 56 74 25 185 64 245 85 61 22 133 46 160 53 28
7 120 41 205 75 85 34 178 70 206 80 28 10 65 25 82 34 17 9 40 16 50 16 11 0
67 22 124 49 123 57 334 148 433 186 78 30 836 404 1100 543 94 49 232 127
307 173 75 46 206 126 290 177 84 51 227 142 318 201 91 60 208 136 261 169
82 52 308 211 524 369 33 24 94 69 135 99 80 58 209 157 347 267 47 37 89 67
94 67 21 0 292 229 514 435 77 72 230 210 340 307 249 219 741 715 902 908 66
80 153 181 194 226 174 189 302 338 399 463 158 201 256 328 314 406 181 242
259 350 310 425 31 47 94 139 139 205 327 480 570 876 817 1335 145 271 500
989 500 1013 0 5 23 57 50 114 28 57 50 106 50 109 0 7 89 216 100 236 6 10
10 23 10 30 0 7 7 27 16 43 24 46 154 378 208 530 10 28 31 86 48 130 16 44
38 107 48 140 10 33 33 105 52 160 57 165 105 314 132 415 33 120 56 199 95
326 17 56 31 113 31 128 0 14 11 55 25 91 13 36 28 86 34 112 11 58 53 243 76
338 42 175 64 275 75 340 6 39 18 93 25 120 8 28 21 95 30 151 8 55 21 130 29
165 8 35 17 91 21 124 3 33 15 112 25 175 53 321 70 445 75 545 4 61 15 173
25 250 11 77 24 214 30 305 6 91 15 201 20 245 39 319 39 1765 0 2070 -5 43
-15 150 -21 239 -5 89 -17 213 -25 276 -8 63 -21 185 -28 270 -8 85 -23 211
-35 280 -11 69 -27 172 -35 230 -21 152 -52 333 -86 505 -17 83 -39 202 -50
265 -10 63 -30 158 -43 210 -13 52 -34 138 -45 190 -12 52 -29 127 -38 165 -8
39 -22 100 -30 137 -8 36 -23 92 -34 124 -11 31 -20 67 -20 80 0 13 -11 53
-24 91 -14 37 -39 120 -56 183 -71 267 -101 366 -173 570 -129 368 -149 428
-159 460 -21 67 -112 300 -163 420 -21 47 -45 108 -55 135 -34 96 -79 202
-165 390 -47 105 -107 237 -133 295 -25 58 -122 256 -215 440 -93 184 -187
370 -208 412 -22 42 -98 175 -170 295 -72 120 -140 234 -151 253 -98 171 -142
239 -460 720 -146 219 -194 289 -289 416 -42 55 -95 130 -119 165 -59 87 -191
260 -260 339 -31 36 -96 117 -145 180 -100 130 -163 204 -345 405 -70 77 -178
201 -241 275 -156 185 -624 665 -793 813 -261 229 -333 292 -432 382 -197 177
-380 335 -454 390 -113 84 -267 202 -340 261 -36 28 -105 80 -153 115 -49 35
-121 88 -160 117 -395 291 -1094 749 -1415 928 -68 38 -145 81 -170 95 -277
156 -322 179 -857 439 -187 91 -254 121 -480 217 -33 14 -73 31 -90 38 -16 7
-95 42 -175 77 -200 89 -191 86 -325 134 -66 23 -158 57 -205 75 -228 85 -449
163 -555 194 -49 15 -112 35 -140 45 -27 10 -66 22 -85 25 -19 4 -57 15 -85
25 -27 9 -111 34 -185 55 -74 20 -202 56 -285 80 -82 23 -168 46 -190 49 -22
4 -67 16 -100 27 -33 10 -89 26 -125 34 -36 8 -96 22 -135 30 -517 119 -665
150 -865 180 -52 7 -140 20 -195 28 -55 9 -172 25 -260 37 -88 11 -218 29
-290 40 -189 27 -202 29 -410 40 -104 6 -275 21 -380 32 -152 16 -279 21 -630
25 -425 5 -441 4 -458 -14z m5843 -10804 c63 -6 158 -22 210 -35 52 -14 122
-31 155 -39 97 -23 186 -51 245 -75 144 -60 328 -146 355 -165 17 -12 57 -37
90 -54 32 -18 75 -46 94 -63 19 -17 66 -51 105 -76 107 -68 312 -275 419 -422
49 -69 112 -154 139 -189 26 -36 48 -71 48 -78 0 -8 -14 -22 -31 -31 -17 -9
-54 -31 -82 -49 -29 -18 -95 -54 -147 -82 -52 -27 -143 -74 -203 -105 -59 -32
-111 -55 -116 -51 -5 3 -27 31 -48 63 -118 172 -160 226 -250 317 -94 95 -221
195 -321 252 -26 14 -81 47 -122 73 -46 29 -117 61 -185 82 -60 20 -132 45
-160 56 -27 11 -102 30 -165 43 -104 21 -143 23 -405 23 -260 1 -303 -1 -412
-22 -67 -12 -153 -33 -190 -46 -37 -13 -102 -34 -143 -46 -117 -35 -358 -164
-459 -244 -203 -164 -252 -212 -375 -371 -117 -152 -249 -413 -291 -574 -14
-53 -38 -145 -55 -206 -77 -280 -82 -850 -10 -1135 76 -305 93 -358 146 -468
30 -63 60 -125 65 -139 5 -14 43 -76 83 -137 144 -218 426 -485 611 -579 123
-63 327 -146 405 -165 358 -89 439 -98 745 -82 148 8 228 17 270 30 33 10 110
30 171 44 101 22 204 61 384 144 36 16 101 57 144 91 139 106 358 333 413 427
16 27 48 78 71 114 38 61 94 195 147 356 40 121 69 364 45 379 -5 3 -399 6
-874 5 -779 0 -866 1 -880 15 -14 14 -16 51 -16 271 0 157 4 263 10 275 10 19
35 19 1218 19 926 0 1211 -3 1220 -12 9 -9 12 -321 12 -1344 0 -1146 -2 -1335
-14 -1347 -12 -12 -61 -15 -254 -16 -141 -1 -250 2 -265 8 l-27 10 -2 458 c-3
394 -5 458 -18 458 -8 0 -23 -15 -35 -32 -11 -18 -38 -61 -60 -95 -138 -219
-357 -433 -564 -550 -31 -17 -70 -42 -87 -55 -17 -13 -85 -46 -150 -73 -65
-28 -139 -60 -164 -71 -45 -20 -98 -32 -380 -91 -154 -33 -157 -33 -445 -33
-273 0 -300 2 -455 28 -408 70 -566 119 -865 270 -391 196 -674 459 -929 862
-38 61 -85 144 -104 185 -19 41 -50 107 -68 145 -69 144 -163 467 -174 595 -5
52 -15 124 -24 160 -48 201 -45 807 4 991 6 21 15 82 20 137 8 81 23 141 84
326 41 124 86 247 100 274 14 26 38 77 54 113 37 84 160 286 221 362 25 33 78
98 117 145 145 176 413 401 574 482 36 18 74 40 85 50 53 47 515 230 581 230
9 0 51 12 93 26 53 18 126 31 250 45 97 10 194 20 216 23 66 7 481 -3 605 -15z
m-4349 -61 c5 -7 9 -1197 9 -2645 0 -2402 -1 -2633 -16 -2648 -14 -14 -53 -15
-320 -14 -254 1 -307 3 -319 16 -13 13 -15 337 -15 2652 0 1652 4 2641 9 2647
6 5 138 8 327 7 252 -1 319 -4 325 -15z m8544 2 c15 -12 65 -84 155 -220 87
-132 169 -256 210 -315 42 -61 72 -105 190 -284 36 -55 93 -139 128 -188 34
-48 111 -162 171 -253 60 -91 120 -181 134 -200 39 -55 258 -385 302 -454 22
-35 53 -81 68 -102 16 -22 47 -68 71 -104 23 -36 152 -229 287 -430 135 -201
277 -412 315 -470 39 -58 97 -145 130 -193 32 -48 84 -126 114 -172 123 -187
274 -412 301 -450 16 -22 46 -67 66 -99 21 -32 53 -79 72 -104 18 -25 54 -79
79 -120 41 -67 65 -92 78 -80 2 3 4 957 4 2121 0 1467 3 2118 10 2122 6 4 151
7 322 7 289 0 313 -1 325 -18 20 -28 19 -5252 -1 -5280 -14 -18 -31 -19 -346
-22 -375 -3 -358 -6 -405 75 -15 26 -48 75 -72 108 -24 33 -135 198 -246 366
-243 368 -148 226 -622 934 -220 328 -425 635 -455 682 -160 246 -340 517
-375 565 -16 23 -57 83 -90 134 -66 103 -235 356 -315 474 -28 41 -89 134
-135 205 -47 72 -107 162 -133 200 -142 204 -286 423 -312 476 -65 128 -61
274 -63 -2069 -2 -2111 -2 -2124 -22 -2138 -30 -22 -621 -16 -635 6 -6 9 -10
1010 -10 2652 0 2276 2 2638 14 2645 25 14 674 7 691 -7z m-7510 -7130 c44
-44 79 -84 77 -90 -13 -52 -539 -592 -1668 -1710 -707 -700 -844 -830 -844
-795 0 12 51 84 68 97 10 7 29 31 42 53 13 22 31 47 41 55 15 14 50 73 49 85
0 3 9 14 21 26 16 16 20 29 15 50 -3 16 -2 28 2 26 4 -1 8 1 10 6 5 17 1 27
-13 27 -8 0 -15 6 -16 13 0 9 -2 9 -6 -1 -2 -6 -9 -10 -14 -6 -5 3 -9 1 -9 -4
0 -6 -9 -8 -19 -5 -13 3 -25 -3 -36 -20 -16 -25 -75 -43 -75 -24 0 24 585 623
1450 1483 393 391 738 734 765 762 28 29 57 52 65 52 8 0 51 -36 95 -80z
m3299 -136 c14 -14 16 -221 16 -2135 0 -1834 2 -2141 15 -2281 21 -215 32
-289 50 -335 8 -21 31 -98 50 -172 73 -270 259 -578 452 -747 186 -162 410
-284 617 -335 66 -16 148 -38 181 -49 111 -36 474 -52 670 -30 100 12 247 45
405 92 115 34 345 142 400 189 19 16 67 53 105 83 95 72 245 240 312 349 18
29 44 71 58 94 26 42 65 130 130 293 18 47 40 121 49 165 8 44 24 125 34 180
53 266 52 225 52 2503 0 1438 3 2119 10 2133 10 18 25 19 380 19 327 0 370 -2
385 -16 15 -15 16 -199 12 -2278 -3 -2021 -5 -2267 -20 -2319 -8 -32 -21 -108
-27 -170 -7 -65 -22 -141 -37 -182 -13 -38 -36 -118 -50 -178 -14 -62 -44
-149 -69 -203 -25 -53 -54 -119 -64 -147 -20 -54 -125 -236 -171 -297 -15 -19
-34 -48 -42 -65 -24 -47 -209 -257 -283 -322 -37 -32 -97 -84 -133 -116 -36
-32 -95 -74 -131 -94 -36 -20 -81 -48 -100 -63 -53 -41 -299 -157 -424 -200
-61 -20 -128 -44 -148 -53 -40 -17 -145 -37 -350 -67 -442 -66 -825 -59 -1218
20 -52 10 -115 22 -140 26 -25 3 -83 22 -130 41 -47 19 -123 48 -170 65 -47
16 -99 38 -115 48 -17 11 -69 38 -115 61 -324 159 -656 479 -866 834 -161 271
-291 671 -324 995 -6 63 -15 144 -20 180 -5 36 -9 1055 -10 2274 0 1778 2
2211 12 2218 7 4 178 8 380 8 320 0 369 -2 382 -16z m-2925 -216 c11 -18 38
-51 60 -73 24 -22 41 -48 41 -61 0 -12 -17 -44 -39 -71 -69 -87 -411 -435
-1155 -1178 -1031 -1029 -1316 -1304 -1316 -1270 0 18 33 67 70 106 58 60 90
100 90 112 0 5 16 30 36 54 33 40 36 49 31 90 -2 25 -12 52 -22 62 -15 15 -19
13 -48 -20 -18 -20 -48 -42 -68 -48 -19 -6 -45 -25 -58 -41 -12 -17 -26 -30
-31 -30 -12 0 -13 27 -2 32 4 2 75 75 157 163 206 221 457 477 1190 1211 736
737 1001 994 1026 994 9 0 26 -15 38 -32z m373 -483 c16 -27 35 -64 43 -81 8
-17 21 -34 30 -37 28 -11 16 -36 -57 -119 -222 -252 -1765 -1792 -2455 -2451
-55 -52 -67 -42 -14 11 23 22 41 45 41 52 0 6 25 36 55 67 30 31 55 61 55 66
0 5 29 42 64 82 42 49 66 85 70 109 4 20 11 36 17 36 6 0 9 17 7 38 -3 34 -6
37 -35 40 -18 2 -33 -1 -33 -7 0 -5 -9 -13 -20 -16 -11 -3 -26 -12 -32 -19
-25 -25 -110 -86 -119 -86 -18 0 13 44 76 110 34 36 121 125 191 199 687 716
2045 2064 2073 2059 8 -2 27 -25 43 -53z m278 -497 c11 -24 20 -58 20 -77 0
-23 8 -41 25 -57 48 -45 31 -77 -138 -259 -300 -323 -1773 -1792 -2094 -2088
-108 -100 -119 -86 -27 36 24 31 44 61 44 67 0 5 10 16 22 24 12 9 19 16 14
16 -5 0 -3 8 5 18 8 9 25 38 38 64 12 26 29 52 38 56 12 7 14 15 6 38 -12 36
-35 41 -69 15 -15 -12 -31 -21 -36 -21 -6 0 -22 -9 -38 -20 -15 -11 -30 -17
-34 -13 -3 3 -6 -1 -6 -9 0 -16 -28 -33 -38 -24 -10 11 9 37 33 46 14 5 25 16
25 24 0 28 388 426 1355 1387 396 394 743 740 770 768 28 28 54 51 58 51 4 0
17 -19 27 -42z m224 -574 c9 -24 7 -100 -4 -129 -9 -24 -11 -25 -32 -11 -38
24 -59 0 -61 -68 -1 -31 3 -60 8 -65 15 -14 76 15 82 39 7 25 46 24 51 -2 5
-24 -63 -112 -173 -224 -27 -28 -108 -111 -178 -185 -235 -246 -1044 -1054
-1563 -1560 -71 -69 -144 -134 -161 -143 -18 -9 -33 -22 -33 -29 -1 -19 -23
-43 -48 -51 -18 -6 -22 -4 -22 13 0 21 19 44 58 70 11 8 24 26 27 40 3 14 27
53 53 86 43 56 46 64 49 128 2 71 -8 84 -41 51 -9 -8 -16 -12 -16 -7 -1 4 -9
-2 -19 -14 -18 -21 -59 -43 -82 -43 -42 0 75 124 905 958 764 767 1166 1162
1184 1162 5 0 13 -7 16 -16z m134 -753 c4 -83 -4 -106 -24 -68 -8 15 -18 27
-23 27 -15 0 -69 -99 -72 -132 -3 -42 9 -78 26 -78 28 0 46 13 61 46 13 27 19
32 30 23 18 -15 17 -59 -1 -84 -67 -91 -298 -329 -930 -960 -781 -781 -986
-977 -1002 -961 -8 8 60 115 76 119 9 2 24 27 35 55 10 29 22 52 26 52 5 0 18
15 29 34 27 44 31 166 5 166 -9 0 -25 -11 -36 -25 -11 -14 -25 -25 -33 -25 -7
0 -36 -16 -65 -36 -28 -19 -54 -34 -56 -31 -13 13 252 285 1135 1164 394 391
732 728 751 747 50 52 64 45 68 -33z m-12 -783 c-3 -24 -8 -70 -11 -103 -4
-33 -16 -75 -27 -94 -16 -29 -18 -45 -13 -92 l7 -57 -94 -98 c-51 -55 -115
-123 -143 -153 -93 -100 -811 -815 -1006 -1001 -306 -293 -329 -314 -335 -307
-7 7 -2 16 61 95 94 120 116 152 121 181 4 17 12 31 19 31 13 0 25 30 25 63 0
11 -13 23 -32 32 -30 12 -35 12 -53 -5 -26 -23 -65 -35 -65 -20 0 6 5 21 12
33 39 75 1496 1537 1531 1537 4 0 6 -19 3 -42z m-256 -1038 c0 -6 -24 -70 -54
-143 -86 -210 -214 -465 -276 -548 -14 -19 -47 -68 -72 -109 -26 -42 -57 -85
-69 -95 -12 -11 -39 -45 -60 -75 -52 -75 -292 -328 -412 -434 -53 -47 -100
-86 -102 -86 -14 0 -1 32 23 57 44 45 88 105 117 158 25 46 27 59 27 169 0
101 -3 120 -17 128 -9 6 -25 8 -36 5 -27 -7 -24 15 7 44 14 13 33 38 41 54 19
37 174 197 478 497 126 125 265 263 309 308 75 77 96 92 96 70z"/>
<path d="M27415 32803 c-139 -6 -361 -35 -415 -54 -30 -11 -73 -25 -95 -31
-157 -42 -257 -83 -413 -167 -114 -62 -197 -129 -323 -258 -129 -131 -180
-207 -256 -381 -59 -132 -67 -160 -85 -277 -25 -167 -27 -361 -4 -530 15 -115
23 -145 73 -260 30 -71 79 -163 107 -204 71 -103 196 -227 291 -289 44 -28
105 -69 135 -91 31 -22 85 -51 120 -64 36 -14 112 -47 170 -74 58 -27 155 -64
215 -82 61 -18 137 -42 170 -53 33 -11 110 -33 170 -50 61 -16 137 -38 170
-49 135 -44 263 -81 312 -89 28 -5 118 -32 200 -60 81 -28 171 -58 198 -66 44
-14 80 -29 242 -106 24 -11 89 -50 145 -87 134 -88 234 -193 281 -293 89 -192
82 -161 82 -372 0 -185 -1 -193 -28 -261 -56 -141 -85 -190 -166 -276 -107
-115 -212 -184 -384 -254 -202 -81 -310 -98 -617 -93 -198 3 -252 8 -345 27
-60 13 -126 31 -145 41 -19 10 -80 32 -135 49 -144 45 -241 105 -470 296 -39
33 -151 199 -208 309 -37 71 -67 133 -67 137 0 5 -9 33 -20 63 -24 64 -41 71
-102 44 -23 -11 -115 -35 -203 -54 -283 -62 -299 -66 -335 -83 -39 -19 -39
-20 -11 -106 10 -33 28 -92 40 -132 28 -93 134 -293 207 -391 117 -156 338
-363 469 -437 28 -16 68 -41 90 -56 39 -26 178 -89 335 -151 79 -31 193 -58
375 -89 61 -10 153 -25 205 -34 124 -22 556 -16 695 9 50 9 131 23 180 31 162
25 269 53 350 91 44 20 116 51 161 69 100 40 246 129 339 207 81 69 198 196
261 284 62 86 151 280 180 392 49 190 49 608 -1 805 -34 136 -134 323 -243
454 -52 62 -219 199 -337 275 -108 70 -340 183 -445 216 -52 16 -120 41 -150
55 -30 13 -98 35 -150 47 -52 12 -167 44 -255 70 -88 26 -186 50 -217 54 -63
7 -227 51 -270 72 -15 8 -89 30 -165 49 -76 20 -159 47 -184 60 -26 13 -90 42
-144 64 -189 79 -372 227 -429 346 -15 33 -43 102 -62 154 -31 84 -34 104 -34
199 0 93 4 118 36 216 54 167 84 216 204 336 89 89 121 113 210 161 120 64
215 95 332 109 46 6 113 17 150 25 86 19 304 20 395 1 37 -8 97 -17 133 -21
138 -14 249 -52 425 -143 155 -80 359 -287 435 -442 32 -65 80 -184 80 -199 0
-6 12 -18 26 -27 24 -16 29 -16 72 -1 26 9 90 25 142 37 283 60 406 101 403
136 -2 32 -81 250 -112 311 -96 191 -178 301 -318 428 -151 136 -274 219 -428
286 -49 22 -98 45 -109 50 -29 17 -187 67 -257 82 -35 8 -90 24 -122 36 -64
24 -172 37 -407 51 -151 9 -199 9 -345 3z"/>
<path d="M16464 32737 c-22 -12 -21 -5278 1 -5300 12 -13 129 -15 857 -15
1021 0 1284 11 1442 58 33 10 79 21 101 25 52 9 324 99 367 121 18 9 76 36
128 59 395 173 806 612 997 1064 81 192 103 252 123 335 73 312 90 397 105
521 29 247 36 436 25 615 -13 195 -48 508 -61 553 -6 18 -18 73 -29 122 -31
148 -66 275 -100 355 -17 41 -47 116 -66 165 -53 135 -214 402 -303 501 -25
28 -70 79 -100 113 -153 177 -458 402 -661 489 -233 100 -540 178 -755 192
-82 6 -175 15 -205 20 -66 13 -1844 19 -1866 7z m1961 -624 c50 -12 119 -26
155 -32 337 -54 666 -240 879 -496 72 -87 131 -166 131 -177 0 -3 27 -53 60
-110 33 -57 70 -134 81 -173 12 -38 30 -88 40 -110 40 -88 90 -321 119 -555 7
-54 13 -225 13 -400 0 -280 -2 -319 -26 -480 -43 -283 -113 -503 -228 -713
-33 -59 -59 -111 -59 -115 0 -4 -19 -30 -43 -57 -24 -28 -57 -71 -75 -96 -83
-123 -358 -335 -523 -405 -196 -83 -310 -114 -486 -134 -147 -17 -239 -20
-740 -20 -558 0 -574 1 -593 20 -19 19 -20 39 -20 2032 0 1886 1 2013 17 2030
17 19 39 19 613 16 562 -4 600 -5 685 -25z"/>
<path d="M21953 32735 c-11 -8 -13 -432 -13 -2650 0 -2423 1 -2641 16 -2652
12 -9 351 -12 1409 -12 1248 -1 1396 1 1409 15 14 13 16 56 16 297 0 155 -4
288 -8 295 -7 10 -218 13 -1081 15 -934 2 -1073 4 -1081 17 -5 9 -8 363 -7
863 2 741 4 849 17 857 9 6 367 10 948 9 513 0 937 3 942 6 15 9 13 568 -2
583 -9 9 -234 12 -950 12 -892 0 -938 1 -947 18 -13 25 -14 1688 0 1713 9 18
39 19 1083 19 970 0 1074 2 1080 16 3 9 6 138 6 289 0 220 -3 275 -14 284 -18
15 -2802 21 -2823 6z"/>
<path d="M27730 25772 c-8 -3 -53 -30 -100 -60 -256 -168 -588 -504 -786 -797
-26 -38 -62 -88 -79 -110 -18 -22 -48 -70 -68 -107 -20 -37 -47 -85 -60 -105
-13 -21 -44 -78 -69 -128 -25 -49 -62 -114 -82 -144 -34 -50 -46 -91 -27 -91
18 0 908 876 1096 1079 202 218 215 241 134 241 l-42 0 5 44 c5 37 40 102 69
126 9 8 31 51 27 54 -2 2 -10 1 -18 -2z"/>
<path d="M28289 25593 c-53 -44 -270 -245 -349 -323 -31 -30 -99 -96 -151
-147 -52 -50 -428 -427 -836 -837 -670 -673 -743 -749 -748 -783 -3 -21 -12
-69 -20 -108 -8 -38 -19 -104 -25 -146 -5 -41 -14 -88 -20 -103 -12 -34 -13
-66 -1 -66 11 0 -11 -21 1005 990 725 721 1156 1165 1185 1218 16 31 -2 36
-46 12 -53 -28 -81 -26 -89 7 -12 46 21 120 116 263 16 25 32 60 26 60 -1 0
-22 -17 -47 -37z"/>
<path d="M20540 25519 c0 -12 17 -48 38 -80 79 -123 262 -427 262 -436 0 -3
25 -43 55 -89 30 -46 64 -103 76 -127 12 -23 34 -60 49 -82 30 -44 186 -309
215 -365 10 -19 30 -51 46 -70 15 -19 40 -60 55 -90 15 -30 44 -80 64 -110 20
-30 52 -82 70 -115 18 -33 45 -78 60 -100 14 -22 42 -67 60 -100 19 -33 44
-73 56 -90 12 -16 34 -55 49 -85 15 -30 44 -80 65 -110 20 -30 60 -95 89 -145
28 -49 60 -101 70 -115 10 -14 51 -81 91 -150 40 -69 92 -154 115 -190 23 -36
59 -96 80 -135 21 -38 48 -83 60 -100 12 -16 37 -57 55 -90 47 -84 176 -300
215 -360 17 -27 65 -106 105 -175 41 -69 100 -167 132 -217 109 -172 98 -2 98
-1428 0 -770 4 -1256 10 -1265 8 -13 62 -15 385 -15 323 0 377 2 385 15 6 9
10 490 10 1252 0 929 3 1244 12 1265 12 29 147 260 205 351 53 82 178 293 198
332 9 19 36 64 60 100 46 71 107 173 193 320 30 52 65 109 77 125 13 17 35 54
50 84 14 29 50 89 78 132 29 43 79 126 112 184 33 58 78 133 100 168 23 34 58
94 80 132 21 39 48 84 60 100 12 17 39 62 60 100 21 39 55 95 75 125 21 30 50
80 65 110 15 30 42 75 60 100 18 25 73 115 122 201 49 85 100 171 114 189 13
19 47 74 74 122 65 113 251 424 304 508 113 179 242 403 239 418 -3 16 -38 17
-406 20 -335 2 -407 0 -431 -12 -17 -9 -40 -39 -60 -78 -19 -35 -50 -90 -71
-123 -20 -33 -78 -130 -128 -215 -118 -201 -194 -329 -262 -440 -30 -50 -88
-147 -129 -218 -41 -70 -98 -165 -126 -212 -29 -47 -83 -139 -122 -205 -39
-66 -79 -134 -89 -151 -11 -18 -40 -67 -66 -110 -25 -44 -69 -117 -98 -164
-28 -47 -79 -132 -112 -190 -33 -58 -80 -134 -103 -170 -23 -36 -60 -96 -81
-135 -21 -38 -57 -99 -80 -135 -23 -36 -51 -85 -64 -110 -12 -25 -37 -67 -54
-95 -53 -81 -157 -255 -193 -321 -36 -67 -56 -89 -73 -79 -5 3 -25 39 -44 80
-19 41 -46 89 -59 107 -14 18 -50 76 -79 128 -30 52 -85 145 -122 205 -38 61
-84 139 -103 175 -19 36 -55 97 -80 135 -25 39 -79 129 -120 200 -41 72 -90
153 -108 180 -18 28 -47 77 -65 110 -18 33 -63 110 -100 170 -37 61 -92 153
-122 205 -31 52 -97 165 -148 250 -51 85 -114 191 -140 235 -26 44 -60 103
-77 130 -16 28 -63 106 -103 175 -40 69 -96 163 -125 210 -28 47 -63 105 -77
130 -81 145 -166 286 -190 311 l-26 29 -411 0 -411 0 0 -21z"/>
<path d="M28763 25248 c-79 -67 -123 -108 -333 -313 -283 -275 -2302 -2303
-2314 -2323 -5 -9 -10 -97 -10 -195 -1 -148 1 -180 13 -185 9 -3 24 7 38 25
14 17 155 161 315 320 635 631 1835 1831 2028 2029 234 239 390 409 390 424 0
17 -16 11 -48 -17 -17 -16 -37 -34 -46 -41 -26 -21 -69 -33 -93 -27 -18 4 -23
12 -23 38 0 43 44 154 73 186 33 36 67 87 67 100 0 19 -16 12 -57 -21z"/>
<path d="M29203 24857 c-28 -29 -82 -79 -119 -112 -161 -145 -408 -388 -1522
-1505 -1488 -1490 -1382 -1381 -1382 -1420 0 -17 4 -40 10 -50 5 -10 15 -62
21 -117 6 -54 12 -100 14 -101 2 -2 14 -1 26 3 12 4 619 604 1348 1334 1328
1327 1773 1780 1779 1807 6 25 -36 16 -55 -12 -16 -24 -143 -114 -161 -114 -4
0 -16 7 -26 15 -14 10 -16 18 -9 27 6 7 14 29 18 48 9 44 69 145 112 189 18
18 33 40 33 47 0 28 -36 12 -87 -39z"/>
<path d="M29639 24472 c-40 -27 -247 -230 -1103 -1082 -439 -437 -803 -800
-810 -807 -6 -6 -316 -317 -688 -690 -563 -563 -678 -683 -678 -706 0 -15 16
-56 35 -93 19 -36 35 -73 35 -83 0 -22 28 -61 44 -61 14 0 2504 2481 3005
2994 166 171 309 323 317 339 15 28 15 29 -8 22 -13 -4 -36 -22 -53 -40 -16
-17 -46 -37 -65 -43 -20 -7 -40 -22 -45 -34 -13 -29 -45 -35 -61 -13 -25 34
-4 102 60 194 62 90 69 140 15 103z"/>
<path d="M30013 24021 c-23 -14 -164 -147 -315 -295 -443 -435 -3088 -3080
-3088 -3088 0 -3 12 -20 26 -37 14 -17 41 -63 61 -103 39 -81 46 -88 77 -80
26 7 3086 3065 3148 3147 71 94 79 114 60 145 -9 14 -19 27 -22 30 -17 16 14
123 50 170 33 44 53 92 48 118 -3 18 -5 18 -45 -7z"/>
<path d="M38692 7334 c-21 -18 -43 -67 -82 -184 -10 -30 -27 -77 -38 -105 -26
-62 -111 -327 -147 -455 -15 -52 -40 -138 -56 -191 -16 -53 -29 -108 -29 -122
0 -14 -13 -81 -29 -149 -16 -68 -33 -163 -39 -211 -7 -65 -15 -96 -31 -115
-11 -15 -30 -45 -42 -67 -152 -288 -383 -457 -641 -472 -254 -15 -406 87 -452
304 -6 27 -3 34 18 48 21 14 33 15 76 6 65 -14 236 -14 337 0 60 8 99 22 167
57 115 59 182 126 238 235 41 80 42 84 43 182 0 96 -2 105 -35 169 -37 75 -83
116 -179 163 -55 27 -60 28 -226 27 l-170 0 -80 -35 c-135 -58 -207 -101 -278
-168 -106 -100 -212 -272 -238 -389 -5 -23 -32 -89 -60 -147 -56 -115 -135
-211 -218 -264 -101 -65 -312 -95 -319 -46 -1 11 15 43 37 73 60 79 176 324
219 462 34 108 73 277 81 353 10 82 2 109 -42 141 -25 19 -42 21 -147 21 -159
0 -158 1 -175 -166 -6 -68 -20 -151 -30 -184 -71 -243 -119 -368 -177 -472
-24 -43 -35 -53 -56 -53 -57 0 -100 -20 -122 -55 -18 -29 -20 -43 -14 -93 l6
-60 -53 -40 c-96 -73 -160 -82 -203 -31 -22 26 -26 40 -26 92 0 34 9 98 19
142 10 44 22 100 26 125 4 25 27 113 52 195 25 83 51 170 58 195 8 25 25 72
39 105 14 33 26 67 26 76 0 9 9 36 20 60 28 62 26 103 -6 128 -40 31 -100 44
-188 39 -76 -5 -81 -6 -108 -39 -16 -19 -36 -59 -44 -89 -20 -71 -44 -146 -96
-300 -23 -69 -48 -145 -56 -170 -41 -131 -124 -306 -187 -395 -159 -224 -375
-264 -375 -69 0 55 29 197 80 389 18 66 39 145 46 175 8 30 40 133 71 228 64
199 64 214 -2 246 -49 24 -191 34 -233 17 -44 -18 -66 -55 -101 -171 -18 -58
-54 -172 -81 -255 -105 -332 -173 -675 -150 -769 34 -136 83 -188 209 -221 59
-15 71 -15 170 0 87 14 122 25 191 61 90 46 213 148 249 207 20 33 63 61 75
50 3 -4 6 -26 6 -50 0 -76 34 -153 87 -201 64 -57 160 -87 248 -77 187 20 325
79 447 192 52 47 63 49 153 28 82 -20 145 -19 244 5 113 27 206 78 286 157 38
37 72 63 82 61 11 -2 20 -21 28 -54 16 -69 56 -136 129 -212 84 -88 181 -135
345 -167 155 -31 175 -31 327 0 157 33 245 70 364 155 105 74 165 134 227 225
48 71 87 110 102 101 5 -4 10 -37 9 -74 0 -84 14 -140 57 -217 55 -98 126
-152 240 -181 187 -47 420 11 604 151 60 45 80 55 100 51 114 -27 264 -4 370
56 65 37 162 127 232 214 53 67 122 185 132 225 20 81 254 458 349 563 37 40
38 40 53 22 8 -11 15 -40 15 -65 0 -25 7 -68 15 -96 8 -27 28 -97 45 -155 37
-128 77 -297 86 -367 l7 -53 -47 -43 c-59 -54 -70 -101 -37 -166 l22 -42 -33
-29 c-36 -33 -83 -50 -141 -50 -30 0 -46 8 -82 41 -46 42 -65 85 -65 146 0 35
-38 73 -72 73 -49 0 -122 -56 -138 -106 -15 -44 21 -182 63 -241 66 -93 234
-169 352 -159 77 6 206 41 267 72 27 14 77 51 114 84 47 43 75 61 102 65 187
27 268 65 377 175 41 41 81 85 90 96 34 50 114 184 120 203 11 37 -30 90 -71
91 -26 0 -48 -24 -69 -75 -27 -65 -104 -172 -163 -226 -62 -57 -105 -81 -176
-98 -42 -10 -51 -10 -64 3 -13 13 -14 23 -4 66 7 29 12 68 12 88 0 64 -55 292
-115 482 -41 127 -75 272 -75 317 0 24 9 61 20 83 31 60 26 90 -21 135 l-40
40 -82 0 c-74 0 -88 -3 -147 -35 -109 -57 -267 -230 -404 -443 -31 -48 -56
-89 -56 -91 0 -2 -16 -33 -36 -68 -67 -117 -151 -277 -178 -338 -22 -48 -95
-130 -158 -176 -36 -27 -76 -45 -137 -60 -122 -32 -137 -15 -76 85 112 180
164 475 116 657 -24 92 -60 153 -128 213 -80 72 -152 96 -278 95 -86 0 -113
-5 -190 -32 -49 -18 -102 -41 -117 -52 -15 -11 -41 -23 -58 -26 -39 -8 -39 3
4 136 19 58 46 146 61 195 24 82 58 190 116 365 12 36 32 90 45 121 13 31 24
70 24 88 0 28 -6 34 -62 63 -54 27 -76 32 -153 36 -77 4 -93 1 -113 -14z m428
-1128 c41 -29 47 -38 63 -102 16 -65 16 -77 1 -198 -15 -121 -57 -269 -87
-304 -6 -8 -28 -21 -49 -29 -21 -8 -49 -29 -63 -45 -22 -26 -25 -38 -23 -95 3
-65 3 -65 -37 -98 -64 -55 -115 -75 -184 -75 -75 0 -118 17 -154 59 -42 50
-50 99 -44 256 5 118 12 160 41 266 53 189 72 228 142 278 33 24 91 58 130 76
126 61 188 64 264 11z m-1543 13 c78 -38 91 -99 45 -202 -32 -70 -77 -126
-125 -156 -83 -51 -271 -88 -331 -65 -25 10 -19 49 22 132 77 156 156 240 268
287 72 30 68 30 121 4z"/>
<path d="M32780 6611 c-49 -16 -116 -54 -162 -93 -57 -47 -185 -195 -256 -295
-47 -66 -178 -285 -214 -358 -8 -16 -29 -56 -46 -87 -17 -31 -36 -65 -41 -75
-5 -10 -21 -43 -34 -73 -25 -58 -155 -237 -203 -281 -88 -81 -174 -101 -202
-49 -20 37 -8 212 23 338 14 57 25 112 25 122 0 10 11 54 24 97 13 43 36 123
51 178 15 55 40 145 56 199 16 54 29 113 29 131 0 62 -69 94 -203 95 -86 0
-90 -1 -117 -30 -19 -21 -32 -50 -40 -88 -6 -31 -22 -91 -35 -132 -12 -41 -37
-122 -55 -180 -107 -352 -129 -405 -230 -545 -71 -98 -107 -133 -184 -179 -46
-28 -71 -36 -108 -36 -69 0 -84 26 -81 140 2 81 8 112 47 275 10 39 22 88 27
110 5 22 23 92 40 155 32 122 70 265 95 365 27 107 -10 136 -174 143 l-102 4
-34 -36 c-23 -24 -36 -50 -41 -78 -4 -24 -31 -124 -60 -223 -29 -99 -63 -216
-74 -260 -12 -44 -34 -129 -50 -190 -50 -185 -62 -379 -30 -490 27 -97 173
-175 302 -161 119 12 195 34 267 76 87 51 207 168 250 244 48 84 65 75 67 -36
2 -97 19 -141 79 -208 46 -51 88 -64 178 -56 101 10 198 60 299 156 85 80 111
113 228 285 77 114 142 224 153 262 29 93 288 505 360 572 36 34 47 20 56 -76
5 -43 17 -100 28 -128 11 -27 23 -70 27 -94 4 -25 16 -69 26 -99 20 -57 69
-279 69 -310 0 -10 -22 -41 -50 -69 -56 -58 -63 -90 -34 -163 17 -41 17 -41
-12 -71 -46 -48 -128 -62 -191 -33 -52 26 -83 73 -93 146 -14 94 -52 118 -128
79 -65 -33 -87 -65 -87 -124 1 -119 64 -231 165 -293 80 -49 189 -77 267 -70
133 14 280 76 360 152 52 50 97 74 140 74 48 0 165 36 221 67 88 50 157 117
229 226 38 56 79 123 93 149 l25 47 -21 28 c-12 15 -33 32 -47 37 -35 13 -61
-11 -97 -90 -45 -100 -118 -189 -210 -257 -35 -25 -151 -62 -173 -54 -8 3 -12
43 -12 128 0 140 -14 233 -55 364 -88 282 -133 467 -122 508 3 12 14 36 24 52
28 47 23 80 -21 127 -38 41 -41 42 -107 45 -38 1 -80 -1 -94 -6z"/>
</g>
</svg>
